<?xml version="1.0" encoding="UTF-8" standalone="no"?>
<!DOCTYPE svg PUBLIC "-//W3C//DTD SVG 1.1//EN" "http://www.w3.org/Graphics/SVG/1.1/DTD/svg11.dtd">
<svg width="100%" height="100%" viewBox="0 0 2500 625" version="1.1" xmlns="http://www.w3.org/2000/svg" xmlns:xlink="http://www.w3.org/1999/xlink" xml:space="preserve" xmlns:serif="http://www.serif.com/" style="fill-rule:evenodd;clip-rule:evenodd;stroke-linejoin:round;stroke-miterlimit:2;">
    <g id="Layer-2" serif:id="Layer 2" transform="matrix(4.16667,0,0,4.16667,0,0)">
        <g transform="matrix(1,0,0,1,130.091,22.4242)">
            <path d="M0,112.943C-8.332,115.896 -24.11,119.957 -39.888,119.957C-61.694,119.957 -77.473,114.236 -88.464,103.347C-99.278,92.459 -105.306,76.216 -105.306,57.949C-105.128,16.607 -76.23,-7.014 -37.052,-7.014C-21.629,-7.014 -9.75,-3.877 -3.9,-1.106L-9.573,21.589C-16.134,18.455 -24.11,16.24 -37.229,16.24C-59.744,16.24 -76.94,29.527 -76.94,56.472C-76.94,82.31 -61.34,97.259 -39.18,97.259C-33.152,97.259 -28.187,96.519 -26.061,95.595L-26.061,69.39L-44.498,69.39L-44.498,47.427L0,47.427L0,112.943Z" style="fill:rgb(50,51,102);fill-rule:nonzero;"/>
        </g>
        <g transform="matrix(1,0,0,1,141.078,107.914)">
            <path d="M0,-26.371C0,-38.541 -0.17,-46.484 -0.678,-53.584L21.351,-53.584L22.367,-38.203L23.045,-38.203C27.281,-50.371 37.278,-55.443 45.412,-55.443C47.785,-55.443 48.971,-55.273 50.834,-54.937L50.834,-30.766C48.632,-31.103 46.6,-31.441 43.717,-31.441C34.229,-31.441 27.79,-26.539 26.096,-18.426C25.757,-16.736 25.587,-14.875 25.587,-12.68L25.587,29.072L-0.17,29.072L0,-26.371Z" style="fill:rgb(50,51,102);fill-rule:nonzero;"/>
        </g>
        <g transform="matrix(1,0,0,1,241.85,92.4767)">
            <path d="M0,4.576C-13.557,4.576 -24.062,7.795 -24.062,17.623C-24.062,24.23 -19.656,27.451 -13.896,27.451C-7.625,27.451 -2.204,23.215 -0.509,17.963C-0.17,16.605 0,15.082 0,13.556L0,4.576ZM24.909,23.724C24.909,31.517 25.247,39.142 26.264,43.719L3.05,43.719L1.523,35.416L1.016,35.416C-4.405,42.023 -12.878,45.582 -22.708,45.582C-39.482,45.582 -49.48,33.381 -49.48,20.166C-49.48,-1.356 -30.162,-11.522 -0.848,-11.522L-0.848,-12.539C-0.848,-16.945 -3.22,-23.213 -15.928,-23.213C-24.401,-23.213 -33.382,-20.334 -38.805,-17.113L-43.549,-33.551C-37.787,-36.77 -26.436,-41.006 -11.354,-41.006C16.266,-41.006 24.909,-24.738 24.909,-5.252L24.909,23.724Z" style="fill:rgb(50,51,102);fill-rule:nonzero;"/>
        </g>
        <g transform="matrix(1,0,0,1,295.124,136.84)">
            <path d="M0,-84.506L11.184,-45.276C13.218,-38.192 14.572,-31.451 15.929,-24.713L16.437,-24.713C17.792,-31.627 19.148,-38.018 21.012,-45.276L31.687,-84.506L58.8,-84.506L27.959,0L2.203,0L-27.96,-84.506L0,-84.506Z" style="fill:rgb(50,51,102);fill-rule:nonzero;"/>
        </g>
        <g transform="matrix(1,0,0,1,0,39.174)">
            <rect x="360.788" y="13.16" width="25.756" height="84.506" style="fill:rgb(50,51,102);"/>
        </g>
        <g transform="matrix(1,0,0,1,431.021,137.059)">
            <path d="M0,-107.262L0,-84.725L18.47,-84.725L18.47,-65.746L0,-65.746L0,-35.584C0,-25.588 2.542,-21.012 10.167,-21.012C13.726,-21.012 15.421,-21.18 17.794,-21.69L17.962,-2.203C14.742,-1.018 8.474,0 1.356,0C-6.947,0 -13.894,-2.881 -18.131,-7.117C-22.875,-12.032 -25.248,-19.994 -25.248,-31.686L-25.248,-65.746L-36.262,-65.746L-36.262,-84.725L-25.248,-84.725L-25.248,-100.313L0,-107.262Z" style="fill:rgb(50,51,102);fill-rule:nonzero;"/>
        </g>
        <g transform="matrix(1,0,0,1,506.459,92.4767)">
            <path d="M0,4.576C-13.555,4.576 -24.061,7.795 -24.061,17.623C-24.061,24.23 -19.655,27.451 -13.894,27.451C-7.625,27.451 -2.202,23.215 -0.508,17.963C-0.168,16.605 0,15.082 0,13.556L0,4.576ZM24.909,23.724C24.909,31.517 25.248,39.142 26.266,43.719L3.051,43.719L1.526,35.416L1.018,35.416C-4.405,42.023 -12.877,45.582 -22.704,45.582C-39.48,45.582 -49.478,33.381 -49.478,20.166C-49.478,-1.356 -30.161,-11.522 -0.847,-11.522L-0.847,-12.539C-0.847,-16.945 -3.218,-23.213 -15.928,-23.213C-24.399,-23.213 -33.381,-20.334 -38.803,-17.113L-43.547,-33.551C-37.786,-36.77 -26.434,-41.006 -11.352,-41.006C16.268,-41.006 24.909,-24.738 24.909,-5.252L24.909,23.724Z" style="fill:rgb(50,51,102);fill-rule:nonzero;"/>
        </g>
        <g transform="matrix(1,0,0,1,0,2.083)">
            <rect x="543.758" y="13.804" width="25.756" height="120.309" style="fill:rgb(50,51,102);"/>
        </g>
        <g transform="matrix(1,0,0,1,373.68,15.9023)">
            <path d="M0,29.92C-9.418,29.92 -15.514,23.272 -15.514,14.959C-15.514,6.465 -9.234,0 0.37,0C9.973,0 15.882,6.465 16.068,14.959C16.068,23.272 9.973,29.92 0.186,29.92L0,29.92Z" style="fill:rgb(242,102,57);fill-rule:nonzero;"/>
        </g>
    </g>
</svg>
